<?xml version="1.0" encoding="utf-8" standalone="no"?>
<!DOCTYPE svg PUBLIC "-//W3C//DTD SVG 1.1//EN"
  "http://www.w3.org/Graphics/SVG/1.1/DTD/svg11.dtd">
<svg xmlns:xlink="http://www.w3.org/1999/xlink" width="679.94832pt" height="304.575023pt" viewBox="0 0 679.94832 304.575023" xmlns="http://www.w3.org/2000/svg" version="1.1">
 <metadata>
  <rdf:RDF xmlns:dc="http://purl.org/dc/elements/1.1/" xmlns:cc="http://creativecommons.org/ns#" xmlns:rdf="http://www.w3.org/1999/02/22-rdf-syntax-ns#">
   <cc:Work>
    <dc:type rdf:resource="http://purl.org/dc/dcmitype/StillImage"/>
    <dc:date>2026-09-15T12:33:57.130941</dc:date>
    <dc:format>image/svg+xml</dc:format>
    <dc:creator>
     <cc:Agent>
      <dc:title>Matplotlib v3.11.2, https://matplotlib.org/</dc:title>
     </cc:Agent>
    </dc:creator>
   </cc:Work>
  </rdf:RDF>
 </metadata>
 <defs>
  <style type="text/css">*{stroke-linejoin: round; stroke-linecap: butt}</style>
 </defs>
 <g id="figure_1">
  <g id="patch_1">
   <path d="M 0 304.575023 
L 679.94832 304.575023 
L 679.94832 0 
L 0 0 
z
" style="fill: #ffffff"/>
  </g>
  <g id="axes_1">
   <g id="patch_2">
    <path d="M 47.78832 265.874203 
L 426.551957 265.874203 
L 426.551957 21.938203 
L 47.78832 21.938203 
z
" style="fill: #ffffff"/>
   </g>
   <g id="matplotlib.axis_1">
    <g id="xtick_1">
     <g id="line2d_1">
      <path d="M 47.78832 265.874203 
L 47.78832 21.938203 
" clip-path="url(#pd1b8bd6c64)" style="fill: none; stroke: #b0b0b0; stroke-opacity: 0.3; stroke-width: 0.6; stroke-linecap: square"/>
     </g>
     <g id="line2d_2">
      <defs>
       <path id="mb0b9b5fdda" d="M 0 0 
L 0 3.5 
" style="stroke: #000000; stroke-width: 0.8"/>
      </defs>
      <g>
       <use xlink:href="#mb0b9b5fdda" x="47.78832" y="265.874203" style="stroke: #000000; stroke-width: 0.8"/>
      </g>
     </g>
     <g id="text_1">
      <!-- 0 -->
      <g transform="translate(44.60707 280.471859) scale(0.1 -0.1)">
       <defs>
        <path id="DejaVuSans-13" d="M 2034 4250 
Q 1547 4250 1301 3770 
Q 1056 3291 1056 2328 
Q 1056 1369 1301 889 
Q 1547 409 2034 409 
Q 2525 409 2770 889 
Q 3016 1369 3016 2328 
Q 3016 3291 2770 3770 
Q 2525 4250 2034 4250 
z
M 2034 4750 
Q 2819 4750 3233 4129 
Q 3647 3509 3647 2328 
Q 3647 1150 3233 529 
Q 2819 -91 2034 -91 
Q 1250 -91 836 529 
Q 422 1150 422 2328 
Q 422 3509 836 4129 
Q 1250 4750 2034 4750 
z
" transform="scale(0.015625)"/>
       </defs>
       <use xlink:href="#DejaVuSans-13"/>
      </g>
     </g>
    </g>
    <g id="xtick_2">
     <g id="line2d_3">
      <path d="M 118.755284 265.874203 
L 118.755284 21.938203 
" clip-path="url(#pd1b8bd6c64)" style="fill: none; stroke: #b0b0b0; stroke-opacity: 0.3; stroke-width: 0.6; stroke-linecap: square"/>
     </g>
     <g id="line2d_4">
      <g>
       <use xlink:href="#mb0b9b5fdda" x="118.755284" y="265.874203" style="stroke: #000000; stroke-width: 0.8"/>
      </g>
     </g>
     <g id="text_2">
      <!-- 100 -->
      <g transform="translate(109.211534 280.471859) scale(0.1 -0.1)">
       <defs>
        <path id="DejaVuSans-14" d="M 794 531 
L 1825 531 
L 1825 4091 
L 703 3866 
L 703 4441 
L 1819 4666 
L 2450 4666 
L 2450 531 
L 3481 531 
L 3481 0 
L 794 0 
L 794 531 
z
" transform="scale(0.015625)"/>
       </defs>
       <use xlink:href="#DejaVuSans-14"/>
       <use xlink:href="#DejaVuSans-13" transform="translate(63.625 0)"/>
       <use xlink:href="#DejaVuSans-13" transform="translate(127.25 0)"/>
      </g>
     </g>
    </g>
    <g id="xtick_3">
     <g id="line2d_5">
      <path d="M 189.722249 265.874203 
L 189.722249 21.938203 
" clip-path="url(#pd1b8bd6c64)" style="fill: none; stroke: #b0b0b0; stroke-opacity: 0.3; stroke-width: 0.6; stroke-linecap: square"/>
     </g>
     <g id="line2d_6">
      <g>
       <use xlink:href="#mb0b9b5fdda" x="189.722249" y="265.874203" style="stroke: #000000; stroke-width: 0.8"/>
      </g>
     </g>
     <g id="text_3">
      <!-- 200 -->
      <g transform="translate(180.178499 280.471859) scale(0.1 -0.1)">
       <defs>
        <path id="DejaVuSans-15" d="M 1228 531 
L 3431 531 
L 3431 0 
L 469 0 
L 469 531 
Q 828 903 1448 1529 
Q 2069 2156 2228 2338 
Q 2531 2678 2651 2914 
Q 2772 3150 2772 3378 
Q 2772 3750 2511 3984 
Q 2250 4219 1831 4219 
Q 1534 4219 1204 4116 
Q 875 4013 500 3803 
L 500 4441 
Q 881 4594 1212 4672 
Q 1544 4750 1819 4750 
Q 2544 4750 2975 4387 
Q 3406 4025 3406 3419 
Q 3406 3131 3298 2873 
Q 3191 2616 2906 2266 
Q 2828 2175 2409 1742 
Q 1991 1309 1228 531 
z
" transform="scale(0.015625)"/>
       </defs>
       <use xlink:href="#DejaVuSans-15"/>
       <use xlink:href="#DejaVuSans-13" transform="translate(63.625 0)"/>
       <use xlink:href="#DejaVuSans-13" transform="translate(127.25 0)"/>
      </g>
     </g>
    </g>
    <g id="xtick_4">
     <g id="line2d_7">
      <path d="M 260.689213 265.874203 
L 260.689213 21.938203 
" clip-path="url(#pd1b8bd6c64)" style="fill: none; stroke: #b0b0b0; stroke-opacity: 0.3; stroke-width: 0.6; stroke-linecap: square"/>
     </g>
     <g id="line2d_8">
      <g>
       <use xlink:href="#mb0b9b5fdda" x="260.689213" y="265.874203" style="stroke: #000000; stroke-width: 0.8"/>
      </g>
     </g>
     <g id="text_4">
      <!-- 300 -->
      <g transform="translate(251.145463 280.471859) scale(0.1 -0.1)">
       <defs>
        <path id="DejaVuSans-16" d="M 2597 2516 
Q 3050 2419 3304 2112 
Q 3559 1806 3559 1356 
Q 3559 666 3084 287 
Q 2609 -91 1734 -91 
Q 1441 -91 1130 -33 
Q 819 25 488 141 
L 488 750 
Q 750 597 1062 519 
Q 1375 441 1716 441 
Q 2309 441 2620 675 
Q 2931 909 2931 1356 
Q 2931 1769 2642 2001 
Q 2353 2234 1838 2234 
L 1294 2234 
L 1294 2753 
L 1863 2753 
Q 2328 2753 2575 2939 
Q 2822 3125 2822 3475 
Q 2822 3834 2567 4026 
Q 2313 4219 1838 4219 
Q 1578 4219 1281 4162 
Q 984 4106 628 3988 
L 628 4550 
Q 988 4650 1302 4700 
Q 1616 4750 1894 4750 
Q 2613 4750 3031 4423 
Q 3450 4097 3450 3541 
Q 3450 3153 3228 2886 
Q 3006 2619 2597 2516 
z
" transform="scale(0.015625)"/>
       </defs>
       <use xlink:href="#DejaVuSans-16"/>
       <use xlink:href="#DejaVuSans-13" transform="translate(63.625 0)"/>
       <use xlink:href="#DejaVuSans-13" transform="translate(127.25 0)"/>
      </g>
     </g>
    </g>
    <g id="xtick_5">
     <g id="line2d_9">
      <path d="M 331.656177 265.874203 
L 331.656177 21.938203 
" clip-path="url(#pd1b8bd6c64)" style="fill: none; stroke: #b0b0b0; stroke-opacity: 0.3; stroke-width: 0.6; stroke-linecap: square"/>
     </g>
     <g id="line2d_10">
      <g>
       <use xlink:href="#mb0b9b5fdda" x="331.656177" y="265.874203" style="stroke: #000000; stroke-width: 0.8"/>
      </g>
     </g>
     <g id="text_5">
      <!-- 400 -->
      <g transform="translate(322.112427 280.471859) scale(0.1 -0.1)">
       <defs>
        <path id="DejaVuSans-17" d="M 2419 4116 
L 825 1625 
L 2419 1625 
L 2419 4116 
z
M 2253 4666 
L 3047 4666 
L 3047 1625 
L 3713 1625 
L 3713 1100 
L 3047 1100 
L 3047 0 
L 2419 0 
L 2419 1100 
L 313 1100 
L 313 1709 
L 2253 4666 
z
" transform="scale(0.015625)"/>
       </defs>
       <use xlink:href="#DejaVuSans-17"/>
       <use xlink:href="#DejaVuSans-13" transform="translate(63.625 0)"/>
       <use xlink:href="#DejaVuSans-13" transform="translate(127.25 0)"/>
      </g>
     </g>
    </g>
    <g id="xtick_6">
     <g id="line2d_11">
      <path d="M 402.623141 265.874203 
L 402.623141 21.938203 
" clip-path="url(#pd1b8bd6c64)" style="fill: none; stroke: #b0b0b0; stroke-opacity: 0.3; stroke-width: 0.6; stroke-linecap: square"/>
     </g>
     <g id="line2d_12">
      <g>
       <use xlink:href="#mb0b9b5fdda" x="402.623141" y="265.874203" style="stroke: #000000; stroke-width: 0.8"/>
      </g>
     </g>
     <g id="text_6">
      <!-- 500 -->
      <g transform="translate(393.079391 280.471859) scale(0.1 -0.1)">
       <defs>
        <path id="DejaVuSans-18" d="M 691 4666 
L 3169 4666 
L 3169 4134 
L 1269 4134 
L 1269 2991 
Q 1406 3038 1543 3061 
Q 1681 3084 1819 3084 
Q 2600 3084 3056 2656 
Q 3513 2228 3513 1497 
Q 3513 744 3044 326 
Q 2575 -91 1722 -91 
Q 1428 -91 1123 -41 
Q 819 9 494 109 
L 494 744 
Q 775 591 1075 516 
Q 1375 441 1709 441 
Q 2250 441 2565 725 
Q 2881 1009 2881 1497 
Q 2881 1984 2565 2268 
Q 2250 2553 1709 2553 
Q 1456 2553 1204 2497 
Q 953 2441 691 2322 
L 691 4666 
z
" transform="scale(0.015625)"/>
       </defs>
       <use xlink:href="#DejaVuSans-18"/>
       <use xlink:href="#DejaVuSans-13" transform="translate(63.625 0)"/>
       <use xlink:href="#DejaVuSans-13" transform="translate(127.25 0)"/>
      </g>
     </g>
    </g>
    <g id="text_7">
     <!-- Distance [km] -->
     <g transform="translate(200.295451 294.852562) scale(0.105 -0.105)">
      <defs>
       <path id="DejaVuSans-27" d="M 1259 4147 
L 1259 519 
L 2022 519 
Q 2988 519 3436 956 
Q 3884 1394 3884 2338 
Q 3884 3275 3436 3711 
Q 2988 4147 2022 4147 
L 1259 4147 
z
M 628 4666 
L 1925 4666 
Q 3281 4666 3915 4102 
Q 4550 3538 4550 2338 
Q 4550 1131 3912 565 
Q 3275 0 1925 0 
L 628 0 
L 628 4666 
z
" transform="scale(0.015625)"/>
       <path id="DejaVuSans-4c" d="M 603 3500 
L 1178 3500 
L 1178 0 
L 603 0 
L 603 3500 
z
M 603 4863 
L 1178 4863 
L 1178 4134 
L 603 4134 
L 603 4863 
z
" transform="scale(0.015625)"/>
       <path id="DejaVuSans-56" d="M 2834 3397 
L 2834 2853 
Q 2591 2978 2328 3040 
Q 2066 3103 1784 3103 
Q 1356 3103 1142 2972 
Q 928 2841 928 2578 
Q 928 2378 1081 2264 
Q 1234 2150 1697 2047 
L 1894 2003 
Q 2506 1872 2764 1633 
Q 3022 1394 3022 966 
Q 3022 478 2636 193 
Q 2250 -91 1575 -91 
Q 1294 -91 989 -36 
Q 684 19 347 128 
L 347 722 
Q 666 556 975 473 
Q 1284 391 1588 391 
Q 1994 391 2212 530 
Q 2431 669 2431 922 
Q 2431 1156 2273 1281 
Q 2116 1406 1581 1522 
L 1381 1569 
Q 847 1681 609 1914 
Q 372 2147 372 2553 
Q 372 3047 722 3315 
Q 1072 3584 1716 3584 
Q 2034 3584 2315 3537 
Q 2597 3491 2834 3397 
z
" transform="scale(0.015625)"/>
       <path id="DejaVuSans-57" d="M 1172 4494 
L 1172 3500 
L 2356 3500 
L 2356 3053 
L 1172 3053 
L 1172 1153 
Q 1172 725 1289 603 
Q 1406 481 1766 481 
L 2356 481 
L 2356 0 
L 1766 0 
Q 1100 0 847 248 
Q 594 497 594 1153 
L 594 3053 
L 172 3053 
L 172 3500 
L 594 3500 
L 594 4494 
L 1172 4494 
z
" transform="scale(0.015625)"/>
       <path id="DejaVuSans-44" d="M 2194 1759 
Q 1497 1759 1228 1600 
Q 959 1441 959 1056 
Q 959 750 1161 570 
Q 1363 391 1709 391 
Q 2188 391 2477 730 
Q 2766 1069 2766 1631 
L 2766 1759 
L 2194 1759 
z
M 3341 1997 
L 3341 0 
L 2766 0 
L 2766 531 
Q 2569 213 2275 61 
Q 1981 -91 1556 -91 
Q 1019 -91 701 211 
Q 384 513 384 1019 
Q 384 1609 779 1909 
Q 1175 2209 1959 2209 
L 2766 2209 
L 2766 2266 
Q 2766 2663 2505 2880 
Q 2244 3097 1772 3097 
Q 1472 3097 1187 3025 
Q 903 2953 641 2809 
L 641 3341 
Q 956 3463 1253 3523 
Q 1550 3584 1831 3584 
Q 2591 3584 2966 3190 
Q 3341 2797 3341 1997 
z
" transform="scale(0.015625)"/>
       <path id="DejaVuSans-51" d="M 3513 2113 
L 3513 0 
L 2938 0 
L 2938 2094 
Q 2938 2591 2744 2837 
Q 2550 3084 2163 3084 
Q 1697 3084 1428 2787 
Q 1159 2491 1159 1978 
L 1159 0 
L 581 0 
L 581 3500 
L 1159 3500 
L 1159 2956 
Q 1366 3272 1645 3428 
Q 1925 3584 2291 3584 
Q 2894 3584 3203 3211 
Q 3513 2838 3513 2113 
z
" transform="scale(0.015625)"/>
       <path id="DejaVuSans-46" d="M 3122 3366 
L 3122 2828 
Q 2878 2963 2633 3030 
Q 2388 3097 2138 3097 
Q 1578 3097 1268 2742 
Q 959 2388 959 1747 
Q 959 1106 1268 751 
Q 1578 397 2138 397 
Q 2388 397 2633 464 
Q 2878 531 3122 666 
L 3122 134 
Q 2881 22 2623 -34 
Q 2366 -91 2075 -91 
Q 1284 -91 818 406 
Q 353 903 353 1747 
Q 353 2603 823 3093 
Q 1294 3584 2113 3584 
Q 2378 3584 2631 3529 
Q 2884 3475 3122 3366 
z
" transform="scale(0.015625)"/>
       <path id="DejaVuSans-48" d="M 3597 1894 
L 3597 1613 
L 953 1613 
Q 991 1019 1311 708 
Q 1631 397 2203 397 
Q 2534 397 2845 478 
Q 3156 559 3463 722 
L 3463 178 
Q 3153 47 2828 -22 
Q 2503 -91 2169 -91 
Q 1331 -91 842 396 
Q 353 884 353 1716 
Q 353 2575 817 3079 
Q 1281 3584 2069 3584 
Q 2775 3584 3186 3129 
Q 3597 2675 3597 1894 
z
M 3022 2063 
Q 3016 2534 2758 2815 
Q 2500 3097 2075 3097 
Q 1594 3097 1305 2825 
Q 1016 2553 972 2059 
L 3022 2063 
z
" transform="scale(0.015625)"/>
       <path id="DejaVuSans-3" transform="scale(0.015625)"/>
       <path id="DejaVuSans-3e" d="M 550 4863 
L 1875 4863 
L 1875 4416 
L 1125 4416 
L 1125 -397 
L 1875 -397 
L 1875 -844 
L 550 -844 
L 550 4863 
z
" transform="scale(0.015625)"/>
       <path id="DejaVuSans-4e" d="M 581 4863 
L 1159 4863 
L 1159 1991 
L 2875 3500 
L 3609 3500 
L 1753 1863 
L 3688 0 
L 2938 0 
L 1159 1709 
L 1159 0 
L 581 0 
L 581 4863 
z
" transform="scale(0.015625)"/>
       <path id="DejaVuSans-50" d="M 3328 2828 
Q 3544 3216 3844 3400 
Q 4144 3584 4550 3584 
Q 5097 3584 5394 3201 
Q 5691 2819 5691 2113 
L 5691 0 
L 5113 0 
L 5113 2094 
Q 5113 2597 4934 2840 
Q 4756 3084 4391 3084 
Q 3944 3084 3684 2787 
Q 3425 2491 3425 1978 
L 3425 0 
L 2847 0 
L 2847 2094 
Q 2847 2600 2669 2842 
Q 2491 3084 2119 3084 
Q 1678 3084 1418 2786 
Q 1159 2488 1159 1978 
L 1159 0 
L 581 0 
L 581 3500 
L 1159 3500 
L 1159 2956 
Q 1356 3278 1631 3431 
Q 1906 3584 2284 3584 
Q 2666 3584 2933 3390 
Q 3200 3197 3328 2828 
z
" transform="scale(0.015625)"/>
       <path id="DejaVuSans-40" d="M 1947 4863 
L 1947 -844 
L 622 -844 
L 622 -397 
L 1369 -397 
L 1369 4416 
L 622 4416 
L 622 4863 
L 1947 4863 
z
" transform="scale(0.015625)"/>
      </defs>
      <use xlink:href="#DejaVuSans-27"/>
      <use xlink:href="#DejaVuSans-4c" transform="translate(77 0)"/>
      <use xlink:href="#DejaVuSans-56" transform="translate(104.78125 0)"/>
      <use xlink:href="#DejaVuSans-57" transform="translate(156.875 0)"/>
      <use xlink:href="#DejaVuSans-44" transform="translate(196.078125 0)"/>
      <use xlink:href="#DejaVuSans-51" transform="translate(257.359375 0)"/>
      <use xlink:href="#DejaVuSans-46" transform="translate(320.734375 0)"/>
      <use xlink:href="#DejaVuSans-48" transform="translate(375.71875 0)"/>
      <use xlink:href="#DejaVuSans-3" transform="translate(437.25 0)"/>
      <use xlink:href="#DejaVuSans-3e" transform="translate(469.03125 0)"/>
      <use xlink:href="#DejaVuSans-4e" transform="translate(508.046875 0)"/>
      <use xlink:href="#DejaVuSans-50" transform="translate(565.953125 0)"/>
      <use xlink:href="#DejaVuSans-40" transform="translate(663.359375 0)"/>
     </g>
    </g>
   </g>
   <g id="matplotlib.axis_2">
    <g id="ytick_1">
     <g id="line2d_13">
      <path d="M 47.78832 265.874203 
L 426.551957 265.874203 
" clip-path="url(#pd1b8bd6c64)" style="fill: none; stroke: #b0b0b0; stroke-opacity: 0.3; stroke-width: 0.6; stroke-linecap: square"/>
     </g>
     <g id="line2d_14">
      <defs>
       <path id="mb54750d674" d="M 0 0 
L -3.5 0 
" style="stroke: #000000; stroke-width: 0.8"/>
      </defs>
      <g>
       <use xlink:href="#mb54750d674" x="47.78832" y="265.874203" style="stroke: #000000; stroke-width: 0.8"/>
      </g>
     </g>
     <g id="text_8">
      <!-- 0 -->
      <g transform="translate(34.42582 269.673031) scale(0.1 -0.1)">
       <use xlink:href="#DejaVuSans-13"/>
      </g>
     </g>
    </g>
    <g id="ytick_2">
     <g id="line2d_15">
      <path d="M 47.78832 218.043615 
L 426.551957 218.043615 
" clip-path="url(#pd1b8bd6c64)" style="fill: none; stroke: #b0b0b0; stroke-opacity: 0.3; stroke-width: 0.6; stroke-linecap: square"/>
     </g>
     <g id="line2d_16">
      <g>
       <use xlink:href="#mb54750d674" x="47.78832" y="218.043615" style="stroke: #000000; stroke-width: 0.8"/>
      </g>
     </g>
     <g id="text_9">
      <!-- 20 -->
      <g transform="translate(28.06332 221.842443) scale(0.1 -0.1)">
       <use xlink:href="#DejaVuSans-15"/>
       <use xlink:href="#DejaVuSans-13" transform="translate(63.625 0)"/>
      </g>
     </g>
    </g>
    <g id="ytick_3">
     <g id="line2d_17">
      <path d="M 47.78832 170.213027 
L 426.551957 170.213027 
" clip-path="url(#pd1b8bd6c64)" style="fill: none; stroke: #b0b0b0; stroke-opacity: 0.3; stroke-width: 0.6; stroke-linecap: square"/>
     </g>
     <g id="line2d_18">
      <g>
       <use xlink:href="#mb54750d674" x="47.78832" y="170.213027" style="stroke: #000000; stroke-width: 0.8"/>
      </g>
     </g>
     <g id="text_10">
      <!-- 40 -->
      <g transform="translate(28.06332 174.011855) scale(0.1 -0.1)">
       <use xlink:href="#DejaVuSans-17"/>
       <use xlink:href="#DejaVuSans-13" transform="translate(63.625 0)"/>
      </g>
     </g>
    </g>
    <g id="ytick_4">
     <g id="line2d_19">
      <path d="M 47.78832 122.382438 
L 426.551957 122.382438 
" clip-path="url(#pd1b8bd6c64)" style="fill: none; stroke: #b0b0b0; stroke-opacity: 0.3; stroke-width: 0.6; stroke-linecap: square"/>
     </g>
     <g id="line2d_20">
      <g>
       <use xlink:href="#mb54750d674" x="47.78832" y="122.382438" style="stroke: #000000; stroke-width: 0.8"/>
      </g>
     </g>
     <g id="text_11">
      <!-- 60 -->
      <g transform="translate(28.06332 126.181267) scale(0.1 -0.1)">
       <defs>
        <path id="DejaVuSans-19" d="M 2113 2584 
Q 1688 2584 1439 2293 
Q 1191 2003 1191 1497 
Q 1191 994 1439 701 
Q 1688 409 2113 409 
Q 2538 409 2786 701 
Q 3034 994 3034 1497 
Q 3034 2003 2786 2293 
Q 2538 2584 2113 2584 
z
M 3366 4563 
L 3366 3988 
Q 3128 4100 2886 4159 
Q 2644 4219 2406 4219 
Q 1781 4219 1451 3797 
Q 1122 3375 1075 2522 
Q 1259 2794 1537 2939 
Q 1816 3084 2150 3084 
Q 2853 3084 3261 2657 
Q 3669 2231 3669 1497 
Q 3669 778 3244 343 
Q 2819 -91 2113 -91 
Q 1303 -91 875 529 
Q 447 1150 447 2328 
Q 447 3434 972 4092 
Q 1497 4750 2381 4750 
Q 2619 4750 2861 4703 
Q 3103 4656 3366 4563 
z
" transform="scale(0.015625)"/>
       </defs>
       <use xlink:href="#DejaVuSans-19"/>
       <use xlink:href="#DejaVuSans-13" transform="translate(63.625 0)"/>
      </g>
     </g>
    </g>
    <g id="ytick_5">
     <g id="line2d_21">
      <path d="M 47.78832 74.55185 
L 426.551957 74.55185 
" clip-path="url(#pd1b8bd6c64)" style="fill: none; stroke: #b0b0b0; stroke-opacity: 0.3; stroke-width: 0.6; stroke-linecap: square"/>
     </g>
     <g id="line2d_22">
      <g>
       <use xlink:href="#mb54750d674" x="47.78832" y="74.55185" style="stroke: #000000; stroke-width: 0.8"/>
      </g>
     </g>
     <g id="text_12">
      <!-- 80 -->
      <g transform="translate(28.06332 78.350678) scale(0.1 -0.1)">
       <defs>
        <path id="DejaVuSans-1b" d="M 2034 2216 
Q 1584 2216 1326 1975 
Q 1069 1734 1069 1313 
Q 1069 891 1326 650 
Q 1584 409 2034 409 
Q 2484 409 2743 651 
Q 3003 894 3003 1313 
Q 3003 1734 2745 1975 
Q 2488 2216 2034 2216 
z
M 1403 2484 
Q 997 2584 770 2862 
Q 544 3141 544 3541 
Q 544 4100 942 4425 
Q 1341 4750 2034 4750 
Q 2731 4750 3128 4425 
Q 3525 4100 3525 3541 
Q 3525 3141 3298 2862 
Q 3072 2584 2669 2484 
Q 3125 2378 3379 2068 
Q 3634 1759 3634 1313 
Q 3634 634 3220 271 
Q 2806 -91 2034 -91 
Q 1263 -91 848 271 
Q 434 634 434 1313 
Q 434 1759 690 2068 
Q 947 2378 1403 2484 
z
M 1172 3481 
Q 1172 3119 1398 2916 
Q 1625 2713 2034 2713 
Q 2441 2713 2670 2916 
Q 2900 3119 2900 3481 
Q 2900 3844 2670 4047 
Q 2441 4250 2034 4250 
Q 1625 4250 1398 4047 
Q 1172 3844 1172 3481 
z
" transform="scale(0.015625)"/>
       </defs>
       <use xlink:href="#DejaVuSans-1b"/>
       <use xlink:href="#DejaVuSans-13" transform="translate(63.625 0)"/>
      </g>
     </g>
    </g>
    <g id="ytick_6">
     <g id="line2d_23">
      <path d="M 47.78832 26.721262 
L 426.551957 26.721262 
" clip-path="url(#pd1b8bd6c64)" style="fill: none; stroke: #b0b0b0; stroke-opacity: 0.3; stroke-width: 0.6; stroke-linecap: square"/>
     </g>
     <g id="line2d_24">
      <g>
       <use xlink:href="#mb54750d674" x="47.78832" y="26.721262" style="stroke: #000000; stroke-width: 0.8"/>
      </g>
     </g>
     <g id="text_13">
      <!-- 100 -->
      <g transform="translate(21.70082 30.52009) scale(0.1 -0.1)">
       <use xlink:href="#DejaVuSans-14"/>
       <use xlink:href="#DejaVuSans-13" transform="translate(63.625 0)"/>
       <use xlink:href="#DejaVuSans-13" transform="translate(127.25 0)"/>
      </g>
     </g>
    </g>
    <g id="text_14">
     <!-- State of charge [%] -->
     <g transform="translate(15.178359 195.014953) rotate(-90) scale(0.105 -0.105)">
      <defs>
       <path id="DejaVuSans-36" d="M 3425 4513 
L 3425 3897 
Q 3066 4069 2747 4153 
Q 2428 4238 2131 4238 
Q 1616 4238 1336 4038 
Q 1056 3838 1056 3469 
Q 1056 3159 1242 3001 
Q 1428 2844 1947 2747 
L 2328 2669 
Q 3034 2534 3370 2195 
Q 3706 1856 3706 1288 
Q 3706 609 3251 259 
Q 2797 -91 1919 -91 
Q 1588 -91 1214 -16 
Q 841 59 441 206 
L 441 856 
Q 825 641 1194 531 
Q 1563 422 1919 422 
Q 2459 422 2753 634 
Q 3047 847 3047 1241 
Q 3047 1584 2836 1778 
Q 2625 1972 2144 2069 
L 1759 2144 
Q 1053 2284 737 2584 
Q 422 2884 422 3419 
Q 422 4038 858 4394 
Q 1294 4750 2059 4750 
Q 2388 4750 2728 4690 
Q 3069 4631 3425 4513 
z
" transform="scale(0.015625)"/>
       <path id="DejaVuSans-52" d="M 1959 3097 
Q 1497 3097 1228 2736 
Q 959 2375 959 1747 
Q 959 1119 1226 758 
Q 1494 397 1959 397 
Q 2419 397 2687 759 
Q 2956 1122 2956 1747 
Q 2956 2369 2687 2733 
Q 2419 3097 1959 3097 
z
M 1959 3584 
Q 2709 3584 3137 3096 
Q 3566 2609 3566 1747 
Q 3566 888 3137 398 
Q 2709 -91 1959 -91 
Q 1206 -91 779 398 
Q 353 888 353 1747 
Q 353 2609 779 3096 
Q 1206 3584 1959 3584 
z
" transform="scale(0.015625)"/>
       <path id="DejaVuSans-49" d="M 2375 4863 
L 2375 4384 
L 1825 4384 
Q 1516 4384 1395 4259 
Q 1275 4134 1275 3809 
L 1275 3500 
L 2222 3500 
L 2222 3053 
L 1275 3053 
L 1275 0 
L 697 0 
L 697 3053 
L 147 3053 
L 147 3500 
L 697 3500 
L 697 3744 
Q 697 4328 969 4595 
Q 1241 4863 1831 4863 
L 2375 4863 
z
" transform="scale(0.015625)"/>
       <path id="DejaVuSans-4b" d="M 3513 2113 
L 3513 0 
L 2938 0 
L 2938 2094 
Q 2938 2591 2744 2837 
Q 2550 3084 2163 3084 
Q 1697 3084 1428 2787 
Q 1159 2491 1159 1978 
L 1159 0 
L 581 0 
L 581 4863 
L 1159 4863 
L 1159 2956 
Q 1366 3272 1645 3428 
Q 1925 3584 2291 3584 
Q 2894 3584 3203 3211 
Q 3513 2838 3513 2113 
z
" transform="scale(0.015625)"/>
       <path id="DejaVuSans-55" d="M 2631 2963 
Q 2534 3019 2420 3045 
Q 2306 3072 2169 3072 
Q 1681 3072 1420 2755 
Q 1159 2438 1159 1844 
L 1159 0 
L 581 0 
L 581 3500 
L 1159 3500 
L 1159 2956 
Q 1341 3275 1631 3429 
Q 1922 3584 2338 3584 
Q 2397 3584 2469 3576 
Q 2541 3569 2628 3553 
L 2631 2963 
z
" transform="scale(0.015625)"/>
       <path id="DejaVuSans-4a" d="M 2906 1791 
Q 2906 2416 2648 2759 
Q 2391 3103 1925 3103 
Q 1463 3103 1205 2759 
Q 947 2416 947 1791 
Q 947 1169 1205 825 
Q 1463 481 1925 481 
Q 2391 481 2648 825 
Q 2906 1169 2906 1791 
z
M 3481 434 
Q 3481 -459 3084 -895 
Q 2688 -1331 1869 -1331 
Q 1566 -1331 1297 -1286 
Q 1028 -1241 775 -1147 
L 775 -588 
Q 1028 -725 1275 -790 
Q 1522 -856 1778 -856 
Q 2344 -856 2625 -561 
Q 2906 -266 2906 331 
L 2906 616 
Q 2728 306 2450 153 
Q 2172 0 1784 0 
Q 1141 0 747 490 
Q 353 981 353 1791 
Q 353 2603 747 3093 
Q 1141 3584 1784 3584 
Q 2172 3584 2450 3431 
Q 2728 3278 2906 2969 
L 2906 3500 
L 3481 3500 
L 3481 434 
z
" transform="scale(0.015625)"/>
       <path id="DejaVuSans-8" d="M 4653 2053 
Q 4381 2053 4226 1822 
Q 4072 1591 4072 1178 
Q 4072 772 4226 539 
Q 4381 306 4653 306 
Q 4919 306 5073 539 
Q 5228 772 5228 1178 
Q 5228 1588 5073 1820 
Q 4919 2053 4653 2053 
z
M 4653 2450 
Q 5147 2450 5437 2106 
Q 5728 1763 5728 1178 
Q 5728 594 5436 251 
Q 5144 -91 4653 -91 
Q 4153 -91 3862 251 
Q 3572 594 3572 1178 
Q 3572 1766 3864 2108 
Q 4156 2450 4653 2450 
z
M 1428 4353 
Q 1159 4353 1004 4120 
Q 850 3888 850 3481 
Q 850 3069 1003 2837 
Q 1156 2606 1428 2606 
Q 1700 2606 1854 2837 
Q 2009 3069 2009 3481 
Q 2009 3884 1853 4118 
Q 1697 4353 1428 4353 
z
M 4250 4750 
L 4750 4750 
L 1831 -91 
L 1331 -91 
L 4250 4750 
z
M 1428 4750 
Q 1922 4750 2215 4408 
Q 2509 4066 2509 3481 
Q 2509 2891 2217 2550 
Q 1925 2209 1428 2209 
Q 931 2209 642 2551 
Q 353 2894 353 3481 
Q 353 4063 643 4406 
Q 934 4750 1428 4750 
z
" transform="scale(0.015625)"/>
      </defs>
      <use xlink:href="#DejaVuSans-36"/>
      <use xlink:href="#DejaVuSans-57" transform="translate(63.484375 0)"/>
      <use xlink:href="#DejaVuSans-44" transform="translate(102.6875 0)"/>
      <use xlink:href="#DejaVuSans-57" transform="translate(163.96875 0)"/>
      <use xlink:href="#DejaVuSans-48" transform="translate(203.171875 0)"/>
      <use xlink:href="#DejaVuSans-3" transform="translate(264.703125 0)"/>
      <use xlink:href="#DejaVuSans-52" transform="translate(296.484375 0)"/>
      <use xlink:href="#DejaVuSans-49" transform="translate(357.671875 0)"/>
      <use xlink:href="#DejaVuSans-3" transform="translate(392.875 0)"/>
      <use xlink:href="#DejaVuSans-46" transform="translate(424.65625 0)"/>
      <use xlink:href="#DejaVuSans-4b" transform="translate(479.640625 0)"/>
      <use xlink:href="#DejaVuSans-44" transform="translate(543.015625 0)"/>
      <use xlink:href="#DejaVuSans-55" transform="translate(604.296875 0)"/>
      <use xlink:href="#DejaVuSans-4a" transform="translate(643.65625 0)"/>
      <use xlink:href="#DejaVuSans-48" transform="translate(707.140625 0)"/>
      <use xlink:href="#DejaVuSans-3" transform="translate(768.671875 0)"/>
      <use xlink:href="#DejaVuSans-3e" transform="translate(800.453125 0)"/>
      <use xlink:href="#DejaVuSans-8" transform="translate(839.46875 0)"/>
      <use xlink:href="#DejaVuSans-40" transform="translate(934.484375 0)"/>
     </g>
    </g>
   </g>
   <g id="line2d_25">
    <path d="M 47.78832 26.721262 
L 47.880645 26.810318 
L 48.344508 26.965343 
L 48.468309 27.144423 
L 48.636276 27.140841 
L 49.041953 27.24892 
L 49.098089 27.526219 
L 49.171794 27.42735 
L 50.830631 28.125023 
L 51.037397 28.354873 
L 51.513597 28.450571 
L 52.084384 28.669771 
L 52.308874 28.961526 
L 52.533744 28.957695 
L 52.584532 28.79051 
L 52.585704 28.801229 
L 52.722867 29.067069 
L 53.261038 29.284595 
L 53.36053 29.144427 
L 53.36635 29.181569 
L 53.514416 29.413225 
L 54.378439 29.755654 
L 54.611681 30.180465 
L 55.164656 30.499452 
L 55.40023 30.438993 
L 56.257453 30.841988 
L 56.400804 31.406049 
L 56.57345 31.511733 
L 56.725224 31.44882 
L 57.171059 31.728085 
L 57.361279 31.314582 
L 57.372851 31.365613 
L 57.56982 31.823377 
L 58.316335 32.21256 
L 58.443168 31.911997 
L 58.45399 31.957393 
L 58.792757 32.732224 
L 60.331384 33.834445 
L 60.520757 34.344145 
L 61.322102 35.086877 
L 61.755946 35.930139 
L 61.979958 35.973726 
L 62.622897 36.633865 
L 62.813812 36.488978 
L 64.085024 37.442745 
L 64.300692 36.855966 
L 64.354926 36.933157 
L 64.85688 37.105671 
L 64.980681 37.289339 
L 65.148648 37.285701 
L 65.554325 37.396509 
L 65.61046 37.681053 
L 65.684166 37.57979 
L 67.343003 38.295213 
L 67.549769 38.53106 
L 68.025969 38.629267 
L 68.596756 38.853996 
L 68.821246 39.153714 
L 69.046116 39.149889 
L 69.096904 38.978664 
L 69.098076 38.989651 
L 69.235239 39.262261 
L 69.77341 39.485128 
L 69.872902 39.34164 
L 69.878721 39.379696 
L 70.026788 39.617128 
L 70.890811 39.967803 
L 71.124053 40.403132 
L 71.677027 40.729567 
L 71.912602 40.667874 
L 72.769824 41.080109 
L 72.913176 41.657716 
L 73.085822 41.765752 
L 73.237595 41.701618 
L 73.683431 41.987012 
L 73.87365 41.564845 
L 73.885222 41.617012 
L 74.082192 42.085137 
L 74.828707 42.482637 
L 74.955539 42.175917 
L 74.966362 42.222288 
L 75.305129 43.01398 
L 76.843755 44.138383 
L 77.033129 44.658502 
L 77.834474 45.414992 
L 78.268318 46.274003 
L 78.49233 46.318511 
L 79.135269 46.989679 
L 79.326184 46.842674 
L 80.597395 47.81153 
L 80.813064 47.216144 
L 80.867297 47.294546 
L 81.369252 47.469728 
L 81.493052 47.656258 
L 81.66102 47.652587 
L 82.066696 47.765075 
L 82.122832 48.05402 
L 82.196538 47.951326 
L 83.855375 48.677142 
L 84.06214 48.916363 
L 84.4568 48.983427 
L 85.109128 49.243727 
L 85.333618 49.547884 
L 85.558488 49.544064 
L 85.609276 49.370592 
L 85.610448 49.381726 
L 85.747611 49.658122 
L 86.285782 49.884007 
L 86.385274 49.738641 
L 86.391093 49.777214 
L 86.53916 50.017932 
L 87.403183 50.373359 
L 87.636425 50.814868 
L 88.189399 51.145679 
L 88.424973 51.083267 
L 89.282196 51.500918 
L 89.425547 52.08647 
L 89.598194 52.195878 
L 89.749967 52.131036 
L 90.195803 52.419999 
L 90.386022 51.992798 
L 90.397594 52.045628 
L 90.594563 52.519795 
L 91.341079 52.922121 
L 91.467911 52.611836 
L 91.478734 52.658773 
L 91.817501 53.460242 
L 93.356127 54.597387 
L 93.545501 55.123467 
L 94.346846 55.887756 
L 94.78069 56.755647 
L 95.004702 56.800674 
L 95.647641 57.47799 
L 95.838555 57.329813 
L 97.109767 58.307006 
L 97.325436 57.706888 
L 97.379669 57.785959 
L 97.881623 57.962612 
L 98.005424 58.150719 
L 98.173391 58.14703 
L 98.579068 58.260442 
L 98.635204 58.551802 
L 98.708909 58.448325 
L 100.367746 59.179805 
L 100.574512 59.420854 
L 100.969171 59.488434 
L 101.6215 59.750593 
L 101.84599 60.057074 
L 102.07086 60.053258 
L 102.121648 59.878628 
L 102.12282 59.889839 
L 102.259983 60.168183 
L 102.798154 60.395573 
L 102.897646 60.249277 
L 102.903465 60.288108 
L 103.051532 60.530445 
L 103.915554 60.888132 
L 104.148796 61.332467 
L 104.701771 61.665287 
L 104.937345 61.602543 
L 105.794568 62.022722 
L 105.937919 62.612088 
L 106.110566 62.722168 
L 106.262339 62.656979 
L 106.708175 62.947702 
L 106.898394 62.518028 
L 106.909966 62.57118 
L 107.106935 63.048329 
L 107.853451 63.453099 
L 107.980283 63.141005 
L 107.991105 63.188227 
L 108.329873 63.994746 
L 109.868499 65.138887 
L 110.057873 65.668422 
L 110.859217 66.437442 
L 111.293062 67.311049 
L 111.517073 67.356422 
L 112.160013 68.037956 
L 112.350927 67.888956 
L 113.622139 68.872206 
L 113.837807 68.26859 
L 113.892041 68.348146 
L 114.393995 68.525872 
L 114.517796 68.715149 
L 114.685763 68.711446 
L 115.09144 68.825551 
L 115.147576 69.118758 
L 115.221281 69.014677 
L 116.880118 69.750656 
L 117.086884 69.993225 
L 117.481543 70.061241 
L 118.133872 70.324998 
L 118.358361 70.633531 
L 118.583232 70.62972 
L 118.634019 70.454056 
L 118.635192 70.465336 
L 118.772354 70.745424 
L 119.310525 70.974203 
L 119.410017 70.827045 
L 119.415837 70.866113 
L 119.563903 71.109963 
L 120.427926 71.469834 
L 120.661168 71.917017 
L 121.214143 72.251883 
L 121.449717 72.188802 
L 122.30694 72.611556 
L 122.450291 73.204815 
L 122.622937 73.315578 
L 122.774711 73.250037 
L 123.220547 73.542554 
L 123.410766 73.110363 
L 123.422338 73.163843 
L 123.619307 73.644032 
L 124.365823 74.051291 
L 124.492655 73.737355 
L 124.503477 73.784867 
L 124.842245 74.596536 
L 126.380871 75.747606 
L 126.570245 76.28044 
L 127.371589 77.053823 
L 127.805434 77.9325 
L 128.029445 77.978172 
L 128.672385 78.663279 
L 128.863299 78.513594 
L 130.134511 79.50178 
L 130.350179 78.895352 
L 130.404413 78.975303 
L 130.906367 79.153901 
L 131.030168 79.344118 
L 131.198135 79.340405 
L 131.603812 79.455062 
L 131.659948 79.749725 
L 131.733653 79.645172 
L 133.39249 80.384608 
L 133.599256 80.628312 
L 133.993915 80.69665 
L 134.646243 80.961576 
L 134.870733 81.271588 
L 135.095603 81.26778 
L 135.146391 81.091379 
L 135.147563 81.102708 
L 135.284726 81.384039 
L 135.822897 81.613791 
L 135.922389 81.466031 
L 135.928209 81.505266 
L 136.076275 81.750167 
L 136.940298 82.111525 
L 137.17354 82.560598 
L 137.726515 82.896783 
L 137.962089 82.833488 
L 138.819312 83.257864 
L 138.962663 83.853492 
L 139.135309 83.964659 
L 139.287083 83.898912 
L 139.732918 84.192477 
L 139.923138 83.75881 
L 139.93471 83.812486 
L 140.131679 84.294454 
L 140.878194 84.703115 
L 141.005027 84.388147 
L 141.015849 84.435824 
L 141.354616 85.250321 
L 142.893243 86.405177 
L 143.082616 86.939884 
L 143.883961 87.715825 
L 144.317805 88.597597 
L 144.541817 88.643457 
L 145.184756 89.330842 
L 145.375671 89.180715 
L 146.646882 90.172169 
L 146.862551 89.563857 
L 146.916785 89.644068 
L 147.418739 89.823246 
L 147.54254 90.014094 
L 147.710507 90.010374 
L 148.116184 90.125405 
L 148.172319 90.421065 
L 148.246025 90.316186 
L 149.904862 91.058047 
L 150.111628 91.302572 
L 150.506287 91.371144 
L 151.158615 91.63693 
L 151.383105 91.948051 
L 151.607975 91.944245 
L 151.658763 91.767289 
L 151.659935 91.778654 
L 151.797098 92.060926 
L 152.335269 92.291424 
L 152.434761 92.143201 
L 152.44058 92.182564 
L 152.588647 92.42828 
L 153.45267 92.790813 
L 153.685912 93.24142 
L 154.238886 93.578706 
L 154.474461 93.515229 
L 155.331683 93.94099 
L 155.475035 94.538714 
L 155.647681 94.650249 
L 155.799454 94.584313 
L 156.24529 94.878841 
L 156.435509 94.443824 
L 156.447081 94.497676 
L 156.644051 94.981278 
L 157.390566 95.391277 
L 157.517398 95.07532 
L 157.528221 95.123153 
L 157.866988 95.940417 
L 159.405614 97.099098 
L 159.594988 97.635699 
L 160.396333 98.414224 
L 160.830177 99.299125 
L 161.054189 99.345174 
L 161.697128 100.034861 
L 161.888043 99.884287 
L 163.159254 100.879042 
L 163.374923 100.268829 
L 163.429156 100.349304 
L 163.931111 100.529066 
L 164.054911 100.720551 
L 164.222878 100.716824 
L 164.628555 100.832234 
L 164.684691 101.1289 
L 164.758397 101.023694 
L 166.417234 101.768004 
L 166.623999 102.013356 
L 167.018659 102.082166 
L 167.670987 102.348822 
L 167.895477 102.661063 
L 168.120347 102.65726 
L 168.171135 102.479742 
L 168.172307 102.491144 
L 168.30947 102.774366 
L 168.847641 103.005619 
L 168.947133 102.856928 
L 168.952952 102.89642 
L 169.101019 103.142959 
L 169.965042 103.506678 
L 170.198284 103.958836 
L 170.751258 104.297234 
L 170.986832 104.233574 
L 171.844055 104.660734 
L 171.987406 105.260576 
L 172.160053 105.372482 
L 172.311826 105.306356 
L 172.757662 105.601858 
L 172.947881 105.165476 
L 172.959453 105.219507 
L 173.156422 105.704761 
L 173.902938 106.116109 
L 174.02977 105.799155 
L 174.040593 105.847146 
L 174.37936 106.667205 
L 175.917986 107.82975 
L 176.10736 108.368265 
L 176.908705 109.149401 
L 177.342549 110.037465 
L 177.566561 110.083707 
L 178.2095 110.775719 
L 178.400414 110.624693 
L 179.671626 111.622784 
L 179.887295 111.010651 
L 179.941528 111.091392 
L 180.443482 111.271746 
L 180.567283 111.463874 
L 180.73525 111.46014 
L 181.140927 111.575931 
L 181.197063 111.873615 
L 181.270768 111.768077 
L 182.929605 112.514862 
L 183.136371 112.761051 
L 183.53103 112.830101 
L 184.183359 113.097634 
L 184.407849 113.411008 
L 184.632719 113.407208 
L 184.683507 113.229124 
L 184.684679 113.240563 
L 184.821842 113.524744 
L 185.360012 113.75676 
L 185.459505 113.607596 
L 185.465324 113.647219 
L 185.613391 113.894589 
L 186.477413 114.259507 
L 186.710655 114.713232 
L 187.26363 115.052752 
L 187.499204 114.988909 
L 188.356427 115.417481 
L 188.499778 116.019465 
L 188.672424 116.131746 
L 188.824198 116.065428 
L 189.270034 116.361913 
L 189.460253 115.924155 
L 189.471825 115.978365 
L 189.668794 116.465288 
L 190.41531 116.878 
L 190.542142 116.560038 
L 190.552964 116.608189 
L 190.891732 117.431074 
L 192.430358 118.597521 
L 192.619732 119.137972 
L 193.421076 119.921745 
L 193.854921 120.813007 
L 194.078932 120.859443 
L 194.721872 121.553805 
L 194.912786 121.402324 
L 196.183998 122.403785 
L 196.399666 121.789713 
L 196.4539 121.870723 
L 196.955854 122.051674 
L 197.079655 122.244453 
L 197.247622 122.240712 
L 197.653299 122.356888 
L 197.709435 122.6556 
L 197.78314 122.549728 
L 199.441977 123.299012 
L 199.648743 123.546047 
L 200.043402 123.615339 
L 200.695731 123.883759 
L 200.92022 124.198279 
L 201.145091 124.194481 
L 201.195878 124.015825 
L 201.197051 124.027302 
L 201.334213 124.312453 
L 201.872384 124.545238 
L 201.971876 124.395597 
L 201.977696 124.435352 
L 202.125762 124.683562 
L 202.989785 125.049691 
L 203.223027 125.505 
L 203.776002 125.845654 
L 204.011576 125.781625 
L 204.868799 126.211625 
L 205.01215 126.815773 
L 205.184796 126.928434 
L 205.33657 126.861922 
L 205.782406 127.1594 
L 205.972625 126.720251 
L 205.984197 126.774644 
L 206.181166 127.263253 
L 206.927682 127.677343 
L 207.054514 127.358364 
L 207.065336 127.406675 
L 207.404104 128.232416 
L 208.94273 129.402806 
L 209.132103 129.945214 
L 209.933448 130.731652 
L 210.367292 131.626148 
L 210.591304 131.672781 
L 211.234244 132.369517 
L 211.425158 132.217576 
L 212.69637 133.222442 
L 212.912038 132.606413 
L 212.966272 132.687694 
L 213.468226 132.869248 
L 213.592027 133.062684 
L 213.759994 133.058936 
L 214.165671 133.175502 
L 214.221807 133.475253 
L 214.295512 133.369043 
L 215.954349 134.120852 
L 216.161115 134.368742 
L 216.555774 134.438279 
L 217.208102 134.707595 
L 217.432592 135.023273 
L 217.657462 135.019478 
L 217.70825 134.840244 
L 217.709422 134.85176 
L 217.846585 135.13789 
L 218.384756 135.371453 
L 218.484248 135.22133 
L 218.490068 135.261218 
L 218.638134 135.510277 
L 219.502157 135.87763 
L 219.735399 136.334539 
L 220.288374 136.676339 
L 220.523948 136.612123 
L 221.38117 137.043564 
L 221.524522 137.649901 
L 221.697168 137.762945 
L 221.848942 137.696237 
L 222.294777 137.994719 
L 222.484997 137.554167 
L 222.496568 137.608743 
L 222.693538 138.099057 
L 223.440053 138.514539 
L 223.566886 138.194532 
L 223.577708 138.243006 
L 223.916475 139.071632 
L 225.455102 140.246008 
L 225.644475 140.790395 
L 226.44582 141.579524 
L 226.879664 142.477291 
L 227.103676 142.524123 
L 227.746615 143.223258 
L 227.93753 143.070854 
L 229.208741 144.07916 
L 229.42441 143.461154 
L 229.478644 143.54271 
L 229.980598 143.724872 
L 230.104399 143.918973 
L 230.272366 143.915217 
L 230.678043 144.032177 
L 230.734178 144.332979 
L 230.807884 144.226427 
L 232.466721 144.980788 
L 232.673487 145.229541 
L 233.068146 145.299326 
L 233.720474 145.569547 
L 233.944964 145.886396 
L 234.169834 145.882605 
L 234.220622 145.702787 
L 234.221794 145.714342 
L 234.358957 146.001462 
L 234.897128 146.235811 
L 234.99662 146.085201 
L 235.002439 146.125223 
L 235.150506 146.37514 
L 236.014529 146.74373 
L 236.247771 147.202262 
L 236.800745 147.545225 
L 237.03632 147.480819 
L 237.893542 147.913725 
L 238.036893 148.522293 
L 238.20954 148.635728 
L 238.361313 148.568821 
L 238.807149 148.868327 
L 238.997368 148.426343 
L 239.00894 148.481106 
L 239.20591 148.973161 
L 239.952425 149.390066 
L 240.079257 149.069009 
L 240.09008 149.117649 
L 240.428847 149.949231 
L 241.967473 151.127705 
L 242.156847 151.674135 
L 242.958192 152.466051 
L 243.392036 153.367216 
L 243.616048 153.414256 
L 244.258987 154.115892 
L 244.449902 153.963004 
L 245.721113 154.974906 
L 245.936782 154.354833 
L 245.991015 154.436675 
L 246.49297 154.619475 
L 246.61677 154.81427 
L 246.784737 154.810507 
L 247.190414 154.927878 
L 247.24655 155.229782 
L 247.320256 155.122872 
L 248.979093 155.87991 
L 249.185858 156.129572 
L 249.580518 156.199617 
L 250.232846 156.470792 
L 250.457336 156.788877 
L 250.682206 156.785089 
L 250.732994 156.604656 
L 250.734166 156.616251 
L 250.871329 156.904416 
L 251.4095 157.139595 
L 251.508992 156.988471 
L 251.514811 157.028635 
L 251.662878 157.279458 
L 252.526901 157.649354 
L 252.760143 158.109596 
L 253.313117 158.453783 
L 253.441553 158.336389 
L 254.405914 158.823622 
L 254.549265 159.434532 
L 254.721912 159.548375 
L 254.873685 159.48126 
L 255.319521 159.781837 
L 255.50974 159.338356 
L 255.521312 159.393315 
L 255.718281 159.887192 
L 256.464797 160.305582 
L 256.591629 159.98343 
L 256.602452 160.032243 
L 256.941219 160.86691 
L 258.479845 162.049639 
L 258.669219 162.598186 
L 259.470564 163.392978 
L 259.904408 164.297642 
L 260.12842 164.344895 
L 260.771359 165.049095 
L 260.962273 164.895712 
L 262.233485 165.911289 
L 262.449154 165.289108 
L 262.503387 165.371243 
L 263.005341 165.554693 
L 263.129142 165.750198 
L 263.297109 165.746428 
L 263.702786 165.864219 
L 263.758922 166.167245 
L 263.832627 166.059971 
L 265.491464 166.819735 
L 265.69823 167.070319 
L 266.092889 167.14063 
L 266.745218 167.412771 
L 266.969708 167.73211 
L 267.194578 167.728325 
L 267.245366 167.54727 
L 267.246538 167.558906 
L 267.383701 167.848129 
L 267.921871 168.084147 
L 268.021364 167.932504 
L 268.027183 167.972812 
L 268.17525 168.224551 
L 269.039272 168.595768 
L 269.272514 169.057739 
L 269.825489 169.403163 
L 269.953924 169.285379 
L 270.918286 169.774357 
L 271.061637 170.387635 
L 271.234283 170.501892 
L 271.386057 170.434567 
L 271.831893 170.736227 
L 272.022112 170.291233 
L 272.033684 170.346391 
L 272.230653 170.842109 
L 272.977169 171.262003 
L 273.104001 170.938743 
L 273.114823 170.987731 
L 273.453591 171.825517 
L 274.992217 173.012549 
L 275.181591 173.563238 
L 275.982935 174.360938 
L 276.41678 175.269143 
L 276.640791 175.316613 
L 277.283731 176.023405 
L 277.474645 175.869522 
L 278.745857 176.888817 
L 278.961525 176.264504 
L 279.015759 176.346936 
L 279.517713 176.531043 
L 279.641514 176.727266 
L 279.809481 176.723488 
L 280.215158 176.841704 
L 280.271294 177.145865 
L 280.344999 177.038223 
L 282.003836 177.800743 
L 282.210602 178.052261 
L 282.605261 178.12284 
L 283.257589 178.395958 
L 283.482079 178.716565 
L 283.70695 178.712785 
L 283.757737 178.5311 
L 283.75891 178.542778 
L 283.896072 178.833071 
L 284.434243 179.069937 
L 284.533735 178.917769 
L 284.539555 178.958223 
L 284.687621 179.210889 
L 285.551644 179.58344 
L 285.784886 180.047162 
L 286.337861 180.393837 
L 286.466296 180.275657 
L 287.430658 180.766399 
L 287.574009 181.382075 
L 287.746655 181.49675 
L 287.898429 181.429213 
L 288.344265 181.731969 
L 288.534484 181.285446 
L 288.546056 181.340804 
L 288.743025 181.838386 
L 289.489541 182.259798 
L 289.616373 181.935419 
L 289.627195 181.984585 
L 289.965963 182.825526 
L 291.504589 184.016908 
L 291.693962 184.569765 
L 292.495307 185.370407 
L 292.929151 186.282195 
L 293.153163 186.329885 
L 293.796103 187.039298 
L 293.987017 186.884911 
L 295.258229 187.907964 
L 295.473897 187.281497 
L 295.528131 187.364229 
L 296.030085 187.549001 
L 296.153886 187.74595 
L 296.321853 187.742164 
L 296.72753 187.860809 
L 296.783665 188.16612 
L 296.857371 188.058106 
L 298.452239 188.739941 
L 298.828977 189.128203 
L 299.036092 189.112463 
L 299.769961 189.420831 
L 299.994451 189.742722 
L 300.219321 189.738946 
L 300.270109 189.556625 
L 300.271281 189.568345 
L 300.408444 189.85972 
L 300.946615 190.097445 
L 301.046107 189.944746 
L 301.051926 189.985346 
L 301.199993 190.23895 
L 302.064016 190.61285 
L 302.297258 191.078343 
L 302.850233 191.426282 
L 302.978668 191.307705 
L 303.943029 191.80023 
L 304.086381 192.418332 
L 304.259027 192.53343 
L 304.410801 192.465679 
L 304.856636 192.769542 
L 305.046856 192.321474 
L 305.058427 192.377035 
L 305.255397 192.876502 
L 306.001912 193.299449 
L 306.128745 192.973939 
L 306.139567 193.023284 
L 306.478334 193.867417 
L 308.01696 195.0632 
L 308.206334 195.618251 
L 309.007679 196.421867 
L 309.441523 197.337284 
L 309.665535 197.385195 
L 310.308474 198.09726 
L 310.499389 197.942364 
L 311.7706 198.969218 
L 311.986269 198.340574 
L 312.040503 198.423609 
L 312.542457 198.609053 
L 312.666258 198.806736 
L 312.834225 198.802943 
L 313.239902 198.922022 
L 313.296037 199.228495 
L 313.369743 199.120106 
L 314.964611 199.804445 
L 315.341349 200.194166 
L 315.548464 200.178384 
L 316.282333 200.487876 
L 316.506823 200.811068 
L 316.731693 200.807296 
L 316.782481 200.624332 
L 316.783653 200.636095 
L 316.920816 200.928565 
L 317.458987 201.167157 
L 317.558479 201.013922 
L 317.564298 201.054671 
L 317.712365 201.309222 
L 318.576388 201.684487 
L 318.80963 202.151771 
L 319.362604 202.500989 
L 319.49104 202.382009 
L 320.455401 202.876338 
L 320.598752 203.496895 
L 320.771399 203.612421 
L 320.923172 203.544454 
L 321.369008 203.849437 
L 321.559227 203.399807 
L 321.570799 203.455573 
L 321.767769 203.956947 
L 322.514284 204.381448 
L 322.641116 204.054795 
L 322.651939 204.104321 
L 322.990706 204.951683 
L 324.529332 206.151916 
L 324.718706 206.709189 
L 325.520051 207.515813 
L 325.953895 208.434902 
L 326.177907 208.483039 
L 326.820846 209.197785 
L 327.011761 209.042375 
L 328.282972 210.073073 
L 328.498641 209.44223 
L 328.552874 209.525571 
L 329.054829 209.711695 
L 329.178629 209.91012 
L 329.346596 209.906319 
L 329.752273 210.025838 
L 329.808409 210.333487 
L 329.882115 210.224717 
L 331.476983 210.91159 
L 331.853721 211.302788 
L 332.060835 211.286963 
L 332.794705 211.597592 
L 333.019195 211.9221 
L 333.244065 211.918333 
L 333.294853 211.734719 
L 333.296025 211.746525 
L 333.433188 212.040101 
L 333.971359 212.279571 
L 334.070851 212.125794 
L 334.07667 212.166693 
L 334.224737 212.422203 
L 335.08876 212.798848 
L 335.322002 213.267945 
L 335.874976 213.618456 
L 336.003411 213.49907 
L 336.967773 213.995222 
L 337.111124 214.618265 
L 337.283771 214.734223 
L 337.435544 214.666038 
L 337.88138 214.972153 
L 338.071599 214.520946 
L 338.083171 214.576919 
L 338.28014 215.080223 
L 339.026656 215.506294 
L 339.153488 215.178485 
L 339.164311 215.228195 
L 339.503078 216.078824 
L 341.041704 217.283559 
L 341.231078 217.84308 
L 342.032423 218.652861 
L 342.466267 219.576314 
L 342.690279 219.624736 
L 343.333218 220.343078 
L 343.524132 220.186949 
L 344.795344 221.223277 
L 345.011013 220.589131 
L 345.065246 220.672916 
L 345.5672 220.860044 
L 345.691001 221.059588 
L 345.858968 221.055775 
L 346.264645 221.175968 
L 346.320781 221.485463 
L 346.394486 221.376089 
L 347.989355 222.067112 
L 348.366093 222.460863 
L 348.573207 222.444964 
L 349.307077 222.757627 
L 349.531567 223.084558 
L 349.756437 223.080799 
L 349.807225 222.895978 
L 349.808397 222.907863 
L 349.94556 223.203506 
L 350.48373 223.444654 
L 350.583223 223.289835 
L 350.589042 223.331021 
L 350.737109 223.588387 
L 351.601131 223.967779 
L 351.834373 224.440613 
L 352.387348 224.793885 
L 352.515783 224.673621 
L 353.480145 225.173763 
L 353.623496 225.802479 
L 353.796142 225.919452 
L 353.947916 225.850752 
L 354.393752 226.159555 
L 354.583971 225.70462 
L 354.595543 225.761076 
L 354.792512 226.268959 
L 355.539028 226.698886 
L 355.66586 226.368229 
L 355.676682 226.418387 
L 356.01545 227.277239 
L 357.554076 228.494112 
L 357.74345 229.060038 
L 358.544794 229.87874 
L 358.978639 230.813148 
L 359.20265 230.862245 
L 359.84559 231.588582 
L 360.036504 231.430925 
L 361.307716 232.478727 
L 361.523384 231.838029 
L 361.577618 231.922728 
L 362.079572 232.111883 
L 362.203373 232.313644 
L 362.37134 232.309809 
L 362.777017 232.431313 
L 362.833153 232.744326 
L 362.906858 232.633818 
L 364.501727 233.332412 
L 364.878464 233.730586 
L 365.085579 233.714562 
L 365.819448 234.030626 
L 366.043938 234.361517 
L 366.268809 234.357774 
L 366.319596 234.171009 
L 366.320768 234.183023 
L 366.457931 234.481987 
L 366.996102 234.725764 
L 367.095594 234.569323 
L 367.101414 234.61096 
L 367.24948 234.871204 
L 368.113503 235.254736 
L 368.346745 235.733026 
L 368.89972 236.090185 
L 369.028155 235.968702 
L 369.992517 236.474329 
L 370.135868 237.110558 
L 370.308514 237.228836 
L 370.460288 237.159482 
L 370.906123 237.471699 
L 371.096343 237.01202 
L 371.107915 237.069101 
L 371.304884 237.582811 
L 372.0514 238.017476 
L 372.178232 237.68334 
L 372.189054 237.73405 
L 372.527822 238.602786 
L 374.066448 239.833285 
L 374.255821 240.40606 
L 375.057166 241.234005 
L 375.49101 242.179805 
L 375.715022 242.229617 
L 376.357962 242.964813 
L 376.548876 242.805407 
L 377.820088 243.866923 
L 378.035756 243.218236 
L 378.08999 243.304019 
L 378.591944 243.495612 
L 378.715745 243.700091 
L 378.883712 243.696228 
L 379.289389 243.819364 
L 379.345524 244.136846 
L 379.41923 244.024885 
L 381.014098 244.733455 
L 381.390836 245.137744 
L 381.597951 245.121546 
L 382.33182 245.442454 
L 382.55631 245.779145 
L 382.78118 245.775427 
L 382.831968 245.585802 
L 382.83314 245.598004 
L 382.970303 245.901883 
L 383.508474 246.149635 
L 383.607966 245.990734 
L 383.613785 246.03305 
L 383.761852 246.297694 
L 384.625875 246.68771 
L 384.859117 247.174839 
L 385.412091 247.538485 
L 385.540527 247.414954 
L 386.504888 247.929938 
L 386.64824 248.579533 
L 386.820886 248.700185 
L 386.97266 248.629642 
L 387.418495 248.948136 
L 387.608715 248.479787 
L 387.620286 248.537995 
L 387.817256 249.062436 
L 388.563771 249.506089 
L 388.690604 249.165339 
L 388.701426 249.217092 
L 389.040193 250.105046 
L 390.578819 251.363764 
L 390.768193 251.95151 
L 391.569538 252.800406 
L 392.003382 253.773264 
L 392.227394 253.82479 
L 392.870333 254.58056 
L 393.061248 254.417124 
L 394.332459 255.510564 
L 394.548128 254.843341 
L 394.615059 254.936825 
L 395.109283 255.159247 
L 395.228117 255.339723 
L 395.423928 255.346953 
L 395.80374 255.475214 
L 395.857896 255.790677 
L 395.924251 255.672273 
L 397.582358 256.453221 
L 397.76187 256.750762 
L 398.044546 256.901045 
L 398.200924 256.850285 
L 398.853306 257.150458 
L 399.055998 257.484844 
L 399.258944 257.599783 
L 399.345105 257.293945 
L 399.349129 257.326454 
L 399.482675 257.620168 
L 400.040778 257.886821 
L 400.120338 257.712608 
L 400.152415 257.880573 
L 400.379827 258.08107 
L 401.147847 258.441427 
L 401.356128 258.93458 
L 401.970545 259.355786 
L 402.171942 259.260395 
L 403.029815 259.79503 
L 403.160611 260.414869 
L 403.314215 260.552886 
L 403.452006 260.443182 
L 403.980206 260.807958 
L 404.119976 260.308086 
L 404.128657 260.353997 
L 404.288154 260.89778 
L 405.062319 261.380236 
L 405.201591 261.031195 
L 405.228701 261.146746 
L 405.552565 262.02105 
L 407.055863 263.203102 
L 407.213786 263.89829 
L 408.104169 264.898614 
L 408.489859 265.874186 
L 408.489859 265.874186 
" clip-path="url(#pd1b8bd6c64)" style="fill: none; stroke: #1f4e79; stroke-width: 1.2; stroke-linecap: square"/>
   </g>
   <g id="line2d_26">
    <path d="M 47.78832 265.874203 
L 426.551957 265.874203 
" clip-path="url(#pd1b8bd6c64)" style="fill: none; stroke: #000000; stroke-width: 0.8; stroke-linecap: square"/>
   </g>
   <g id="line2d_27">
    <path d="M 408.515593 265.874203 
L 408.515593 21.938203 
" clip-path="url(#pd1b8bd6c64)" style="fill: none; stroke-dasharray: 4.44,1.92; stroke-dashoffset: 0; stroke: #c0271c; stroke-width: 1.2"/>
   </g>
   <g id="patch_3">
    <path d="M 47.78832 265.874203 
L 47.78832 21.938203 
" style="fill: none; stroke: #000000; stroke-width: 0.8; stroke-linejoin: miter; stroke-linecap: square"/>
   </g>
   <g id="patch_4">
    <path d="M 47.78832 265.874203 
L 426.551957 265.874203 
" style="fill: none; stroke: #000000; stroke-width: 0.8; stroke-linejoin: miter; stroke-linecap: square"/>
   </g>
   <g id="text_15">
    <!-- 508 km -->
    <g style="fill: #c0271c" transform="translate(362.718718 146.297733) scale(0.1 -0.1)">
     <use xlink:href="#DejaVuSans-18"/>
     <use xlink:href="#DejaVuSans-13" transform="translate(63.625 0)"/>
     <use xlink:href="#DejaVuSans-1b" transform="translate(127.25 0)"/>
     <use xlink:href="#DejaVuSans-3" transform="translate(190.875 0)"/>
     <use xlink:href="#DejaVuSans-4e" transform="translate(222.65625 0)"/>
     <use xlink:href="#DejaVuSans-50" transform="translate(280.5625 0)"/>
    </g>
   </g>
   <g id="text_16">
    <!-- Discharge over repeated WLTC Class 3b (synthetic) -->
    <g transform="translate(89.948576 15.938203) scale(0.115 -0.115)">
     <defs>
      <path id="DejaVuSans-59" d="M 191 3500 
L 800 3500 
L 1894 563 
L 2988 3500 
L 3597 3500 
L 2284 0 
L 1503 0 
L 191 3500 
z
" transform="scale(0.015625)"/>
      <path id="DejaVuSans-53" d="M 1159 525 
L 1159 -1331 
L 581 -1331 
L 581 3500 
L 1159 3500 
L 1159 2969 
Q 1341 3281 1617 3432 
Q 1894 3584 2278 3584 
Q 2916 3584 3314 3078 
Q 3713 2572 3713 1747 
Q 3713 922 3314 415 
Q 2916 -91 2278 -91 
Q 1894 -91 1617 61 
Q 1341 213 1159 525 
z
M 3116 1747 
Q 3116 2381 2855 2742 
Q 2594 3103 2138 3103 
Q 1681 3103 1420 2742 
Q 1159 2381 1159 1747 
Q 1159 1113 1420 752 
Q 1681 391 2138 391 
Q 2594 391 2855 752 
Q 3116 1113 3116 1747 
z
" transform="scale(0.015625)"/>
      <path id="DejaVuSans-47" d="M 2906 2969 
L 2906 4863 
L 3481 4863 
L 3481 0 
L 2906 0 
L 2906 525 
Q 2725 213 2448 61 
Q 2172 -91 1784 -91 
Q 1150 -91 751 415 
Q 353 922 353 1747 
Q 353 2572 751 3078 
Q 1150 3584 1784 3584 
Q 2172 3584 2448 3432 
Q 2725 3281 2906 2969 
z
M 947 1747 
Q 947 1113 1208 752 
Q 1469 391 1925 391 
Q 2381 391 2643 752 
Q 2906 1113 2906 1747 
Q 2906 2381 2643 2742 
Q 2381 3103 1925 3103 
Q 1469 3103 1208 2742 
Q 947 2381 947 1747 
z
" transform="scale(0.015625)"/>
      <path id="DejaVuSans-3a" d="M 213 4666 
L 850 4666 
L 1831 722 
L 2809 4666 
L 3519 4666 
L 4500 722 
L 5478 4666 
L 6119 4666 
L 4947 0 
L 4153 0 
L 3169 4050 
L 2175 0 
L 1381 0 
L 213 4666 
z
" transform="scale(0.015625)"/>
      <path id="DejaVuSans-2f" d="M 628 4666 
L 1259 4666 
L 1259 531 
L 3531 531 
L 3531 0 
L 628 0 
L 628 4666 
z
" transform="scale(0.015625)"/>
      <path id="DejaVuSans-37" d="M -19 4666 
L 3928 4666 
L 3928 4134 
L 2272 4134 
L 2272 0 
L 1638 0 
L 1638 4134 
L -19 4134 
L -19 4666 
z
" transform="scale(0.015625)"/>
      <path id="DejaVuSans-26" d="M 4122 4306 
L 4122 3641 
Q 3803 3938 3442 4084 
Q 3081 4231 2675 4231 
Q 1875 4231 1450 3742 
Q 1025 3253 1025 2328 
Q 1025 1406 1450 917 
Q 1875 428 2675 428 
Q 3081 428 3442 575 
Q 3803 722 4122 1019 
L 4122 359 
Q 3791 134 3420 21 
Q 3050 -91 2638 -91 
Q 1578 -91 968 557 
Q 359 1206 359 2328 
Q 359 3453 968 4101 
Q 1578 4750 2638 4750 
Q 3056 4750 3426 4639 
Q 3797 4528 4122 4306 
z
" transform="scale(0.015625)"/>
      <path id="DejaVuSans-4f" d="M 603 4863 
L 1178 4863 
L 1178 0 
L 603 0 
L 603 4863 
z
" transform="scale(0.015625)"/>
      <path id="DejaVuSans-45" d="M 3116 1747 
Q 3116 2381 2855 2742 
Q 2594 3103 2138 3103 
Q 1681 3103 1420 2742 
Q 1159 2381 1159 1747 
Q 1159 1113 1420 752 
Q 1681 391 2138 391 
Q 2594 391 2855 752 
Q 3116 1113 3116 1747 
z
M 1159 2969 
Q 1341 3281 1617 3432 
Q 1894 3584 2278 3584 
Q 2916 3584 3314 3078 
Q 3713 2572 3713 1747 
Q 3713 922 3314 415 
Q 2916 -91 2278 -91 
Q 1894 -91 1617 61 
Q 1341 213 1159 525 
L 1159 0 
L 581 0 
L 581 4863 
L 1159 4863 
L 1159 2969 
z
" transform="scale(0.015625)"/>
      <path id="DejaVuSans-b" d="M 1984 4856 
Q 1566 4138 1362 3434 
Q 1159 2731 1159 2009 
Q 1159 1288 1364 580 
Q 1569 -128 1984 -844 
L 1484 -844 
Q 1016 -109 783 600 
Q 550 1309 550 2009 
Q 550 2706 781 3412 
Q 1013 4119 1484 4856 
L 1984 4856 
z
" transform="scale(0.015625)"/>
      <path id="DejaVuSans-5c" d="M 2059 -325 
Q 1816 -950 1584 -1140 
Q 1353 -1331 966 -1331 
L 506 -1331 
L 506 -850 
L 844 -850 
Q 1081 -850 1212 -737 
Q 1344 -625 1503 -206 
L 1606 56 
L 191 3500 
L 800 3500 
L 1894 763 
L 2988 3500 
L 3597 3500 
L 2059 -325 
z
" transform="scale(0.015625)"/>
      <path id="DejaVuSans-c" d="M 513 4856 
L 1013 4856 
Q 1481 4119 1714 3412 
Q 1947 2706 1947 2009 
Q 1947 1309 1714 600 
Q 1481 -109 1013 -844 
L 513 -844 
Q 928 -128 1133 580 
Q 1338 1288 1338 2009 
Q 1338 2731 1133 3434 
Q 928 4138 513 4856 
z
" transform="scale(0.015625)"/>
     </defs>
     <use xlink:href="#DejaVuSans-27"/>
     <use xlink:href="#DejaVuSans-4c" transform="translate(77 0)"/>
     <use xlink:href="#DejaVuSans-56" transform="translate(104.78125 0)"/>
     <use xlink:href="#DejaVuSans-46" transform="translate(156.875 0)"/>
     <use xlink:href="#DejaVuSans-4b" transform="translate(211.859375 0)"/>
     <use xlink:href="#DejaVuSans-44" transform="translate(275.234375 0)"/>
     <use xlink:href="#DejaVuSans-55" transform="translate(336.515625 0)"/>
     <use xlink:href="#DejaVuSans-4a" transform="translate(375.875 0)"/>
     <use xlink:href="#DejaVuSans-48" transform="translate(439.359375 0)"/>
     <use xlink:href="#DejaVuSans-3" transform="translate(500.890625 0)"/>
     <use xlink:href="#DejaVuSans-52" transform="translate(532.671875 0)"/>
     <use xlink:href="#DejaVuSans-59" transform="translate(593.859375 0)"/>
     <use xlink:href="#DejaVuSans-48" transform="translate(653.046875 0)"/>
     <use xlink:href="#DejaVuSans-55" transform="translate(714.578125 0)"/>
     <use xlink:href="#DejaVuSans-3" transform="translate(755.6875 0)"/>
     <use xlink:href="#DejaVuSans-55" transform="translate(787.46875 0)"/>
     <use xlink:href="#DejaVuSans-48" transform="translate(826.375 0)"/>
     <use xlink:href="#DejaVuSans-53" transform="translate(887.90625 0)"/>
     <use xlink:href="#DejaVuSans-48" transform="translate(951.390625 0)"/>
     <use xlink:href="#DejaVuSans-44" transform="translate(1012.921875 0)"/>
     <use xlink:href="#DejaVuSans-57" transform="translate(1074.203125 0)"/>
     <use xlink:href="#DejaVuSans-48" transform="translate(1113.40625 0)"/>
     <use xlink:href="#DejaVuSans-47" transform="translate(1174.9375 0)"/>
     <use xlink:href="#DejaVuSans-3" transform="translate(1238.421875 0)"/>
     <use xlink:href="#DejaVuSans-3a" transform="translate(1270.203125 0)"/>
     <use xlink:href="#DejaVuSans-2f" transform="translate(1369.078125 0)"/>
     <use xlink:href="#DejaVuSans-37" transform="translate(1411.03125 0)"/>
     <use xlink:href="#DejaVuSans-26" transform="translate(1466.25 0)"/>
     <use xlink:href="#DejaVuSans-3" transform="translate(1536.078125 0)"/>
     <use xlink:href="#DejaVuSans-26" transform="translate(1567.859375 0)"/>
     <use xlink:href="#DejaVuSans-4f" transform="translate(1637.6875 0)"/>
     <use xlink:href="#DejaVuSans-44" transform="translate(1665.46875 0)"/>
     <use xlink:href="#DejaVuSans-56" transform="translate(1726.75 0)"/>
     <use xlink:href="#DejaVuSans-56" transform="translate(1778.84375 0)"/>
     <use xlink:href="#DejaVuSans-3" transform="translate(1830.9375 0)"/>
     <use xlink:href="#DejaVuSans-16" transform="translate(1862.71875 0)"/>
     <use xlink:href="#DejaVuSans-45" transform="translate(1926.34375 0)"/>
     <use xlink:href="#DejaVuSans-3" transform="translate(1989.828125 0)"/>
     <use xlink:href="#DejaVuSans-b" transform="translate(2021.609375 0)"/>
     <use xlink:href="#DejaVuSans-56" transform="translate(2060.625 0)"/>
     <use xlink:href="#DejaVuSans-5c" transform="translate(2112.71875 0)"/>
     <use xlink:href="#DejaVuSans-51" transform="translate(2171.90625 0)"/>
     <use xlink:href="#DejaVuSans-57" transform="translate(2235.28125 0)"/>
     <use xlink:href="#DejaVuSans-4b" transform="translate(2274.484375 0)"/>
     <use xlink:href="#DejaVuSans-48" transform="translate(2337.859375 0)"/>
     <use xlink:href="#DejaVuSans-57" transform="translate(2399.390625 0)"/>
     <use xlink:href="#DejaVuSans-4c" transform="translate(2438.59375 0)"/>
     <use xlink:href="#DejaVuSans-46" transform="translate(2466.375 0)"/>
     <use xlink:href="#DejaVuSans-c" transform="translate(2521.359375 0)"/>
    </g>
   </g>
  </g>
  <g id="axes_2">
   <g id="patch_5">
    <path d="M 483.366502 265.874203 
L 672.74832 265.874203 
L 672.74832 21.938203 
L 483.366502 21.938203 
z
" style="fill: #ffffff"/>
   </g>
   <g id="patch_6">
    <path d="M 491.974767 265.874203 
L 541.164849 265.874203 
L 541.164849 61.041509 
L 491.974767 61.041509 
z
" clip-path="url(#pd61401a450)" style="fill: #1f4e79"/>
   </g>
   <g id="patch_7">
    <path d="M 553.46237 265.874203 
L 602.652453 265.874203 
L 602.652453 59.722315 
L 553.46237 59.722315 
z
" clip-path="url(#pd61401a450)" style="fill: #555f6b"/>
   </g>
   <g id="patch_8">
    <path d="M 614.949973 265.874203 
L 664.140056 265.874203 
L 664.140056 59.148779 
L 614.949973 59.148779 
z
" clip-path="url(#pd61401a450)" style="fill: #2e8b57"/>
   </g>
   <g id="matplotlib.axis_3">
    <g id="xtick_7">
     <g id="line2d_28">
      <path d="M 516.569808 265.874203 
L 516.569808 21.938203 
" clip-path="url(#pd61401a450)" style="fill: none; stroke: #b0b0b0; stroke-opacity: 0.3; stroke-width: 0.6; stroke-linecap: square"/>
     </g>
     <g id="line2d_29">
      <g>
       <use xlink:href="#mb0b9b5fdda" x="516.569808" y="265.874203" style="stroke: #000000; stroke-width: 0.8"/>
      </g>
     </g>
     <g id="text_17">
      <!-- Simulated -->
      <g transform="translate(495.093363 280.183705) scale(0.085 -0.085)">
       <defs>
        <path id="DejaVuSans-58" d="M 544 1381 
L 544 3500 
L 1119 3500 
L 1119 1403 
Q 1119 906 1312 657 
Q 1506 409 1894 409 
Q 2359 409 2629 706 
Q 2900 1003 2900 1516 
L 2900 3500 
L 3475 3500 
L 3475 0 
L 2900 0 
L 2900 538 
Q 2691 219 2414 64 
Q 2138 -91 1772 -91 
Q 1169 -91 856 284 
Q 544 659 544 1381 
z
M 1991 3584 
L 1991 3584 
z
" transform="scale(0.015625)"/>
       </defs>
       <use xlink:href="#DejaVuSans-36"/>
       <use xlink:href="#DejaVuSans-4c" transform="translate(63.484375 0)"/>
       <use xlink:href="#DejaVuSans-50" transform="translate(91.265625 0)"/>
       <use xlink:href="#DejaVuSans-58" transform="translate(188.671875 0)"/>
       <use xlink:href="#DejaVuSans-4f" transform="translate(252.046875 0)"/>
       <use xlink:href="#DejaVuSans-44" transform="translate(279.828125 0)"/>
       <use xlink:href="#DejaVuSans-57" transform="translate(341.109375 0)"/>
       <use xlink:href="#DejaVuSans-48" transform="translate(380.3125 0)"/>
       <use xlink:href="#DejaVuSans-47" transform="translate(441.84375 0)"/>
      </g>
      <!-- (integrated) -->
      <g transform="translate(491.069144 290.386029) scale(0.085 -0.085)">
       <use xlink:href="#DejaVuSans-b"/>
       <use xlink:href="#DejaVuSans-4c" transform="translate(39.015625 0)"/>
       <use xlink:href="#DejaVuSans-51" transform="translate(66.796875 0)"/>
       <use xlink:href="#DejaVuSans-57" transform="translate(130.171875 0)"/>
       <use xlink:href="#DejaVuSans-48" transform="translate(169.375 0)"/>
       <use xlink:href="#DejaVuSans-4a" transform="translate(230.90625 0)"/>
       <use xlink:href="#DejaVuSans-55" transform="translate(294.390625 0)"/>
       <use xlink:href="#DejaVuSans-44" transform="translate(335.5 0)"/>
       <use xlink:href="#DejaVuSans-57" transform="translate(396.78125 0)"/>
       <use xlink:href="#DejaVuSans-48" transform="translate(435.984375 0)"/>
       <use xlink:href="#DejaVuSans-47" transform="translate(497.515625 0)"/>
       <use xlink:href="#DejaVuSans-c" transform="translate(561 0)"/>
      </g>
     </g>
    </g>
    <g id="xtick_8">
     <g id="line2d_30">
      <path d="M 578.057411 265.874203 
L 578.057411 21.938203 
" clip-path="url(#pd61401a450)" style="fill: none; stroke: #b0b0b0; stroke-opacity: 0.3; stroke-width: 0.6; stroke-linecap: square"/>
     </g>
     <g id="line2d_31">
      <g>
       <use xlink:href="#mb0b9b5fdda" x="578.057411" y="265.874203" style="stroke: #000000; stroke-width: 0.8"/>
      </g>
     </g>
     <g id="text_18">
      <!-- Simulated -->
      <g transform="translate(556.580966 280.183705) scale(0.085 -0.085)">
       <use xlink:href="#DejaVuSans-36"/>
       <use xlink:href="#DejaVuSans-4c" transform="translate(63.484375 0)"/>
       <use xlink:href="#DejaVuSans-50" transform="translate(91.265625 0)"/>
       <use xlink:href="#DejaVuSans-58" transform="translate(188.671875 0)"/>
       <use xlink:href="#DejaVuSans-4f" transform="translate(252.046875 0)"/>
       <use xlink:href="#DejaVuSans-44" transform="translate(279.828125 0)"/>
       <use xlink:href="#DejaVuSans-57" transform="translate(341.109375 0)"/>
       <use xlink:href="#DejaVuSans-48" transform="translate(380.3125 0)"/>
       <use xlink:href="#DejaVuSans-47" transform="translate(441.84375 0)"/>
      </g>
      <!-- (analytic) -->
      <g transform="translate(557.958896 290.386029) scale(0.085 -0.085)">
       <use xlink:href="#DejaVuSans-b"/>
       <use xlink:href="#DejaVuSans-44" transform="translate(39.015625 0)"/>
       <use xlink:href="#DejaVuSans-51" transform="translate(100.296875 0)"/>
       <use xlink:href="#DejaVuSans-44" transform="translate(163.671875 0)"/>
       <use xlink:href="#DejaVuSans-4f" transform="translate(224.953125 0)"/>
       <use xlink:href="#DejaVuSans-5c" transform="translate(252.734375 0)"/>
       <use xlink:href="#DejaVuSans-57" transform="translate(311.921875 0)"/>
       <use xlink:href="#DejaVuSans-4c" transform="translate(351.125 0)"/>
       <use xlink:href="#DejaVuSans-46" transform="translate(378.90625 0)"/>
       <use xlink:href="#DejaVuSans-c" transform="translate(433.890625 0)"/>
      </g>
     </g>
    </g>
    <g id="xtick_9">
     <g id="line2d_32">
      <path d="M 639.545015 265.874203 
L 639.545015 21.938203 
" clip-path="url(#pd61401a450)" style="fill: none; stroke: #b0b0b0; stroke-opacity: 0.3; stroke-width: 0.6; stroke-linecap: square"/>
     </g>
     <g id="line2d_33">
      <g>
       <use xlink:href="#mb0b9b5fdda" x="639.545015" y="265.874203" style="stroke: #000000; stroke-width: 0.8"/>
      </g>
     </g>
     <g id="text_19">
      <!-- Published -->
      <g transform="translate(619.083257 280.183705) scale(0.085 -0.085)">
       <defs>
        <path id="DejaVuSans-33" d="M 1259 4147 
L 1259 2394 
L 2053 2394 
Q 2494 2394 2734 2622 
Q 2975 2850 2975 3272 
Q 2975 3691 2734 3919 
Q 2494 4147 2053 4147 
L 1259 4147 
z
M 628 4666 
L 2053 4666 
Q 2838 4666 3239 4311 
Q 3641 3956 3641 3272 
Q 3641 2581 3239 2228 
Q 2838 1875 2053 1875 
L 1259 1875 
L 1259 0 
L 628 0 
L 628 4666 
z
" transform="scale(0.015625)"/>
       </defs>
       <use xlink:href="#DejaVuSans-33"/>
       <use xlink:href="#DejaVuSans-58" transform="translate(58.546875 0)"/>
       <use xlink:href="#DejaVuSans-45" transform="translate(121.921875 0)"/>
       <use xlink:href="#DejaVuSans-4f" transform="translate(185.40625 0)"/>
       <use xlink:href="#DejaVuSans-4c" transform="translate(213.1875 0)"/>
       <use xlink:href="#DejaVuSans-56" transform="translate(240.96875 0)"/>
       <use xlink:href="#DejaVuSans-4b" transform="translate(293.0625 0)"/>
       <use xlink:href="#DejaVuSans-48" transform="translate(356.4375 0)"/>
       <use xlink:href="#DejaVuSans-47" transform="translate(417.96875 0)"/>
      </g>
      <!-- WLTP -->
      <g transform="translate(628.401382 290.385365) scale(0.085 -0.085)">
       <use xlink:href="#DejaVuSans-3a"/>
       <use xlink:href="#DejaVuSans-2f" transform="translate(98.875 0)"/>
       <use xlink:href="#DejaVuSans-37" transform="translate(140.828125 0)"/>
       <use xlink:href="#DejaVuSans-33" transform="translate(201.90625 0)"/>
      </g>
     </g>
    </g>
   </g>
   <g id="matplotlib.axis_4">
    <g id="ytick_7">
     <g id="line2d_34">
      <path d="M 483.366502 265.874203 
L 672.74832 265.874203 
" clip-path="url(#pd61401a450)" style="fill: none; stroke: #b0b0b0; stroke-opacity: 0.3; stroke-width: 0.6; stroke-linecap: square"/>
     </g>
     <g id="line2d_35">
      <g>
       <use xlink:href="#mb54750d674" x="483.366502" y="265.874203" style="stroke: #000000; stroke-width: 0.8"/>
      </g>
     </g>
     <g id="text_20">
      <!-- 0 -->
      <g transform="translate(470.004002 269.673031) scale(0.1 -0.1)">
       <use xlink:href="#DejaVuSans-13"/>
      </g>
     </g>
    </g>
    <g id="ytick_8">
     <g id="line2d_36">
      <path d="M 483.366502 225.57685 
L 672.74832 225.57685 
" clip-path="url(#pd61401a450)" style="fill: none; stroke: #b0b0b0; stroke-opacity: 0.3; stroke-width: 0.6; stroke-linecap: square"/>
     </g>
     <g id="line2d_37">
      <g>
       <use xlink:href="#mb54750d674" x="483.366502" y="225.57685" style="stroke: #000000; stroke-width: 0.8"/>
      </g>
     </g>
     <g id="text_21">
      <!-- 100 -->
      <g transform="translate(457.279002 229.375678) scale(0.1 -0.1)">
       <use xlink:href="#DejaVuSans-14"/>
       <use xlink:href="#DejaVuSans-13" transform="translate(63.625 0)"/>
       <use xlink:href="#DejaVuSans-13" transform="translate(127.25 0)"/>
      </g>
     </g>
    </g>
    <g id="ytick_9">
     <g id="line2d_38">
      <path d="M 483.366502 185.279496 
L 672.74832 185.279496 
" clip-path="url(#pd61401a450)" style="fill: none; stroke: #b0b0b0; stroke-opacity: 0.3; stroke-width: 0.6; stroke-linecap: square"/>
     </g>
     <g id="line2d_39">
      <g>
       <use xlink:href="#mb54750d674" x="483.366502" y="185.279496" style="stroke: #000000; stroke-width: 0.8"/>
      </g>
     </g>
     <g id="text_22">
      <!-- 200 -->
      <g transform="translate(457.279002 189.078324) scale(0.1 -0.1)">
       <use xlink:href="#DejaVuSans-15"/>
       <use xlink:href="#DejaVuSans-13" transform="translate(63.625 0)"/>
       <use xlink:href="#DejaVuSans-13" transform="translate(127.25 0)"/>
      </g>
     </g>
    </g>
    <g id="ytick_10">
     <g id="line2d_40">
      <path d="M 483.366502 144.982142 
L 672.74832 144.982142 
" clip-path="url(#pd61401a450)" style="fill: none; stroke: #b0b0b0; stroke-opacity: 0.3; stroke-width: 0.6; stroke-linecap: square"/>
     </g>
     <g id="line2d_41">
      <g>
       <use xlink:href="#mb54750d674" x="483.366502" y="144.982142" style="stroke: #000000; stroke-width: 0.8"/>
      </g>
     </g>
     <g id="text_23">
      <!-- 300 -->
      <g transform="translate(457.279002 148.780971) scale(0.1 -0.1)">
       <use xlink:href="#DejaVuSans-16"/>
       <use xlink:href="#DejaVuSans-13" transform="translate(63.625 0)"/>
       <use xlink:href="#DejaVuSans-13" transform="translate(127.25 0)"/>
      </g>
     </g>
    </g>
    <g id="ytick_11">
     <g id="line2d_42">
      <path d="M 483.366502 104.684789 
L 672.74832 104.684789 
" clip-path="url(#pd61401a450)" style="fill: none; stroke: #b0b0b0; stroke-opacity: 0.3; stroke-width: 0.6; stroke-linecap: square"/>
     </g>
     <g id="line2d_43">
      <g>
       <use xlink:href="#mb54750d674" x="483.366502" y="104.684789" style="stroke: #000000; stroke-width: 0.8"/>
      </g>
     </g>
     <g id="text_24">
      <!-- 400 -->
      <g transform="translate(457.279002 108.483617) scale(0.1 -0.1)">
       <use xlink:href="#DejaVuSans-17"/>
       <use xlink:href="#DejaVuSans-13" transform="translate(63.625 0)"/>
       <use xlink:href="#DejaVuSans-13" transform="translate(127.25 0)"/>
      </g>
     </g>
    </g>
    <g id="ytick_12">
     <g id="line2d_44">
      <path d="M 483.366502 64.387435 
L 672.74832 64.387435 
" clip-path="url(#pd61401a450)" style="fill: none; stroke: #b0b0b0; stroke-opacity: 0.3; stroke-width: 0.6; stroke-linecap: square"/>
     </g>
     <g id="line2d_45">
      <g>
       <use xlink:href="#mb54750d674" x="483.366502" y="64.387435" style="stroke: #000000; stroke-width: 0.8"/>
      </g>
     </g>
     <g id="text_25">
      <!-- 500 -->
      <g transform="translate(457.279002 68.186263) scale(0.1 -0.1)">
       <use xlink:href="#DejaVuSans-18"/>
       <use xlink:href="#DejaVuSans-13" transform="translate(63.625 0)"/>
       <use xlink:href="#DejaVuSans-13" transform="translate(127.25 0)"/>
      </g>
     </g>
    </g>
    <g id="ytick_13">
     <g id="line2d_46">
      <path d="M 483.366502 24.090082 
L 672.74832 24.090082 
" clip-path="url(#pd61401a450)" style="fill: none; stroke: #b0b0b0; stroke-opacity: 0.3; stroke-width: 0.6; stroke-linecap: square"/>
     </g>
     <g id="line2d_47">
      <g>
       <use xlink:href="#mb54750d674" x="483.366502" y="24.090082" style="stroke: #000000; stroke-width: 0.8"/>
      </g>
     </g>
     <g id="text_26">
      <!-- 600 -->
      <g transform="translate(457.279002 27.88891) scale(0.1 -0.1)">
       <use xlink:href="#DejaVuSans-19"/>
       <use xlink:href="#DejaVuSans-13" transform="translate(63.625 0)"/>
       <use xlink:href="#DejaVuSans-13" transform="translate(127.25 0)"/>
      </g>
     </g>
    </g>
    <g id="text_27">
     <!-- Range [km] -->
     <g transform="translate(450.756541 174.465305) rotate(-90) scale(0.105 -0.105)">
      <defs>
       <path id="DejaVuSans-35" d="M 2841 2188 
Q 3044 2119 3236 1894 
Q 3428 1669 3622 1275 
L 4263 0 
L 3584 0 
L 2988 1197 
Q 2756 1666 2539 1819 
Q 2322 1972 1947 1972 
L 1259 1972 
L 1259 0 
L 628 0 
L 628 4666 
L 2053 4666 
Q 2853 4666 3247 4331 
Q 3641 3997 3641 3322 
Q 3641 2881 3436 2590 
Q 3231 2300 2841 2188 
z
M 1259 4147 
L 1259 2491 
L 2053 2491 
Q 2509 2491 2742 2702 
Q 2975 2913 2975 3322 
Q 2975 3731 2742 3939 
Q 2509 4147 2053 4147 
L 1259 4147 
z
" transform="scale(0.015625)"/>
      </defs>
      <use xlink:href="#DejaVuSans-35"/>
      <use xlink:href="#DejaVuSans-44" transform="translate(67.28125 0)"/>
      <use xlink:href="#DejaVuSans-51" transform="translate(128.5625 0)"/>
      <use xlink:href="#DejaVuSans-4a" transform="translate(191.9375 0)"/>
      <use xlink:href="#DejaVuSans-48" transform="translate(255.421875 0)"/>
      <use xlink:href="#DejaVuSans-3" transform="translate(316.953125 0)"/>
      <use xlink:href="#DejaVuSans-3e" transform="translate(348.734375 0)"/>
      <use xlink:href="#DejaVuSans-4e" transform="translate(387.75 0)"/>
      <use xlink:href="#DejaVuSans-50" transform="translate(445.65625 0)"/>
      <use xlink:href="#DejaVuSans-40" transform="translate(543.0625 0)"/>
     </g>
    </g>
   </g>
   <g id="patch_9">
    <path d="M 483.366502 265.874203 
L 483.366502 21.938203 
" style="fill: none; stroke: #000000; stroke-width: 0.8; stroke-linejoin: miter; stroke-linecap: square"/>
   </g>
   <g id="patch_10">
    <path d="M 483.366502 265.874203 
L 672.74832 265.874203 
" style="fill: none; stroke: #000000; stroke-width: 0.8; stroke-linejoin: miter; stroke-linecap: square"/>
   </g>
   <g id="text_28">
    <!-- 508 km -->
    <g transform="translate(499.561214 56.8794) scale(0.09 -0.09)">
     <use xlink:href="#DejaVuSans-18"/>
     <use xlink:href="#DejaVuSans-13" transform="translate(63.625 0)"/>
     <use xlink:href="#DejaVuSans-1b" transform="translate(127.25 0)"/>
     <use xlink:href="#DejaVuSans-3" transform="translate(190.875 0)"/>
     <use xlink:href="#DejaVuSans-4e" transform="translate(222.65625 0)"/>
     <use xlink:href="#DejaVuSans-50" transform="translate(280.5625 0)"/>
    </g>
   </g>
   <g id="text_29">
    <!-- 512 km -->
    <g transform="translate(561.048817 55.560206) scale(0.09 -0.09)">
     <use xlink:href="#DejaVuSans-18"/>
     <use xlink:href="#DejaVuSans-14" transform="translate(63.625 0)"/>
     <use xlink:href="#DejaVuSans-15" transform="translate(127.25 0)"/>
     <use xlink:href="#DejaVuSans-3" transform="translate(190.875 0)"/>
     <use xlink:href="#DejaVuSans-4e" transform="translate(222.65625 0)"/>
     <use xlink:href="#DejaVuSans-50" transform="translate(280.5625 0)"/>
    </g>
   </g>
   <g id="text_30">
    <!-- 513 km -->
    <g transform="translate(622.536421 54.98667) scale(0.09 -0.09)">
     <use xlink:href="#DejaVuSans-18"/>
     <use xlink:href="#DejaVuSans-14" transform="translate(63.625 0)"/>
     <use xlink:href="#DejaVuSans-16" transform="translate(127.25 0)"/>
     <use xlink:href="#DejaVuSans-3" transform="translate(190.875 0)"/>
     <use xlink:href="#DejaVuSans-4e" transform="translate(222.65625 0)"/>
     <use xlink:href="#DejaVuSans-50" transform="translate(280.5625 0)"/>
    </g>
   </g>
   <g id="text_31">
    <!-- Validation -->
    <g transform="translate(549.664091 15.938203) scale(0.115 -0.115)">
     <defs>
      <path id="DejaVuSans-39" d="M 1831 0 
L 50 4666 
L 709 4666 
L 2188 738 
L 3669 4666 
L 4325 4666 
L 2547 0 
L 1831 0 
z
" transform="scale(0.015625)"/>
     </defs>
     <use xlink:href="#DejaVuSans-39"/>
     <use xlink:href="#DejaVuSans-44" transform="translate(60.640625 0)"/>
     <use xlink:href="#DejaVuSans-4f" transform="translate(121.921875 0)"/>
     <use xlink:href="#DejaVuSans-4c" transform="translate(149.703125 0)"/>
     <use xlink:href="#DejaVuSans-47" transform="translate(177.484375 0)"/>
     <use xlink:href="#DejaVuSans-44" transform="translate(240.96875 0)"/>
     <use xlink:href="#DejaVuSans-57" transform="translate(302.25 0)"/>
     <use xlink:href="#DejaVuSans-4c" transform="translate(341.453125 0)"/>
     <use xlink:href="#DejaVuSans-52" transform="translate(369.234375 0)"/>
     <use xlink:href="#DejaVuSans-51" transform="translate(430.421875 0)"/>
    </g>
   </g>
  </g>
 </g>
 <defs>
  <clipPath id="pd1b8bd6c64">
   <rect x="47.78832" y="21.938203" width="378.763636" height="243.936"/>
  </clipPath>
  <clipPath id="pd61401a450">
   <rect x="483.366502" y="21.938203" width="189.381818" height="243.936"/>
  </clipPath>
 </defs>
</svg>
